<svg width="128" height="128" viewBox="0 0 128 128" fill="none" xmlns="http://www.w3.org/2000/svg">
    <path d="M128 64C128 99.3462 99.3462 128 64 128C28.6538 128 0 99.3462 0 64C0 28.6538 28.6538 0 64 0C99.3462 0 128 28.6538 128 64Z" fill="#282828"/>
    <path d="M21.9307 54.4853C20.3378 54.4853 19.1716 53.888 18.432 52.6933C17.7493 51.4987 17.408 50.1902 17.408 48.768C17.408 47.3458 17.7493 46.0373 18.432 44.8427C19.1716 43.5911 20.3378 42.9653 21.9307 42.9653C23.4667 42.9653 24.576 43.5911 25.2587 44.8427C25.9982 46.0373 26.368 47.3458 26.368 48.768C26.368 50.1902 25.9982 51.4987 25.2587 52.6933C24.576 53.888 23.4667 54.4853 21.9307 54.4853ZM21.9307 82.4747C20.3378 82.4747 19.1716 81.8773 18.432 80.6827C17.7493 79.488 17.408 78.1796 17.408 76.7573C17.408 75.3351 17.7493 74.0267 18.432 72.832C19.1716 71.5804 20.3378 70.9547 21.9307 70.9547C23.4667 70.9547 24.576 71.5804 25.2587 72.832C25.9982 74.0267 26.368 75.3351 26.368 76.7573C26.368 78.1796 25.9982 79.488 25.2587 80.6827C24.576 81.8773 23.4667 82.4747 21.9307 82.4747Z" fill="#C8C8C8"/>
    <path d="M45.0973 91.52C44.6422 93.056 44.1587 94.1653 43.6467 94.848C43.1916 95.5876 42.4236 95.9573 41.3427 95.9573H38.6973C37.6164 95.9573 37.0191 95.5876 36.9053 94.848C36.7916 94.1653 36.9622 93.056 37.4173 91.52L54.3133 31.0187C54.7684 29.4827 55.2236 28.3733 55.6787 27.6907C56.1338 27.008 56.9018 26.6667 57.9827 26.6667H60.628C61.7089 26.6667 62.3062 27.008 62.42 27.6907C62.5907 28.3733 62.4485 29.4827 61.9933 31.0187L45.0973 91.52Z" fill="#C8FF00"/>
    <path d="M76.8473 91.52C76.3922 93.056 75.9087 94.1653 75.3967 94.848C74.9416 95.5876 74.1736 95.9573 73.0927 95.9573H70.4473C69.3664 95.9573 68.7691 95.5876 68.6553 94.848C68.5416 94.1653 68.7122 93.056 69.1673 91.52L86.0633 31.0187C86.5184 29.4827 86.9736 28.3733 87.4287 27.6907C87.8838 27.008 88.6518 26.6667 89.7327 26.6667H92.378C93.4589 26.6667 94.0562 27.008 94.17 27.6907C94.3407 28.3733 94.1985 29.4827 93.7433 31.0187L76.8473 91.52Z" fill="#C800FF"/>
    <path d="M107.403 91.264C105.867 91.264 104.729 90.6667 103.989 89.472C103.307 88.2204 102.965 86.912 102.965 85.5467C102.965 84.1245 103.307 82.816 103.989 81.6213C104.729 80.3698 105.867 79.744 107.403 79.744C108.996 79.744 110.133 80.3698 110.816 81.6213C111.556 82.816 111.925 84.1245 111.925 85.5467C111.925 86.912 111.556 88.2204 110.816 89.472C110.133 90.6667 108.996 91.264 107.403 91.264Z" fill="#FF0000"/>
</svg>