<svg width="180" height="46" viewBox="0 0 180 46" fill="none" xmlns="http://www.w3.org/2000/svg">
<rect y="6" width="180" height="40" rx="20" fill="#282828"/>
<path d="M18.474 22.432C17.8767 22.432 17.4393 22.208 17.162 21.76C16.906 21.312 16.778 20.8213 16.778 20.288C16.778 19.7547 16.906 19.264 17.162 18.816C17.4393 18.3467 17.8767 18.112 18.474 18.112C19.05 18.112 19.466 18.3467 19.722 18.816C19.9993 19.264 20.138 19.7547 20.138 20.288C20.138 20.8213 19.9993 21.312 19.722 21.76C19.466 22.208 19.05 22.432 18.474 22.432ZM18.474 32.928C17.8767 32.928 17.4393 32.704 17.162 32.256C16.906 31.808 16.778 31.3173 16.778 30.784C16.778 30.2507 16.906 29.76 17.162 29.312C17.4393 28.8427 17.8767 28.608 18.474 28.608C19.05 28.608 19.466 28.8427 19.722 29.312C19.9993 29.76 20.138 30.2507 20.138 30.784C20.138 31.3173 19.9993 31.808 19.722 32.256C19.466 32.704 19.05 32.928 18.474 32.928ZM58.878 34.496C58.9847 34.9653 59.038 35.3387 59.038 35.616C59.038 35.872 58.8247 36 58.398 36H56.958C56.6807 36 56.478 35.9147 56.35 35.744C56.2433 35.5733 56.1367 35.232 56.03 34.72L55.55 32.608C55.486 32.3093 55.4007 32.0853 55.294 31.936C55.1873 31.7867 54.9847 31.712 54.686 31.712H52.126C51.8913 31.712 51.6887 31.776 51.518 31.904C51.3687 32.0107 51.262 32.2453 51.198 32.608L50.814 34.72C50.7073 35.232 50.59 35.5733 50.462 35.744C50.3553 35.9147 50.1633 36 49.886 36H48.734C48.3073 36 48.094 35.872 48.094 35.616C48.094 35.3387 48.1473 34.9653 48.254 34.496L52.286 15.68C52.4353 14.9973 52.7873 14.656 53.342 14.656H53.886C54.4407 14.656 54.7927 14.9973 54.942 15.68L58.878 34.496ZM51.998 28.256C51.934 28.5973 51.9553 28.8107 52.062 28.896C52.1687 28.96 52.3393 28.992 52.574 28.992H54.11C54.3447 28.992 54.5047 28.9493 54.59 28.864C54.6753 28.7787 54.6967 28.576 54.654 28.256L53.726 21.984C53.6833 21.7707 53.5767 21.6747 53.406 21.696C53.2567 21.696 53.1607 21.792 53.118 21.984L51.998 28.256ZM69.527 33.408C69.9963 33.408 70.3483 33.4507 70.583 33.536C70.8177 33.6 70.935 33.8347 70.935 34.24V35.168C70.935 35.5733 70.8177 35.8187 70.583 35.904C70.3483 35.968 69.9963 36 69.527 36H62.519C62.263 36 62.071 35.9467 61.943 35.84C61.8363 35.712 61.7723 35.5627 61.751 35.392C61.751 35.2 61.783 34.9973 61.847 34.784C61.911 34.5707 61.975 34.368 62.039 34.176L67.223 17.568H63.319C62.8497 17.568 62.4977 17.536 62.263 17.472C62.0283 17.3867 61.911 17.1413 61.911 16.736V15.808C61.911 15.4027 62.0283 15.168 62.263 15.104C62.4977 15.0187 62.8497 14.976 63.319 14.976H70.231C70.487 14.976 70.6683 15.04 70.775 15.168C70.903 15.2747 70.967 15.424 70.967 15.616C70.9883 15.7867 70.967 15.9787 70.903 16.192C70.8603 16.4053 70.807 16.608 70.743 16.8L65.431 33.408H69.527ZM84.5343 34.496C84.6409 34.9653 84.6943 35.3387 84.6943 35.616C84.6943 35.872 84.4809 36 84.0543 36H82.6143C82.3369 36 82.1343 35.9147 82.0063 35.744C81.8996 35.5733 81.7929 35.232 81.6863 34.72L81.2063 32.608C81.1423 32.3093 81.0569 32.0853 80.9503 31.936C80.8436 31.7867 80.6409 31.712 80.3423 31.712H77.7823C77.5476 31.712 77.3449 31.776 77.1743 31.904C77.0249 32.0107 76.9183 32.2453 76.8543 32.608L76.4703 34.72C76.3636 35.232 76.2463 35.5733 76.1183 35.744C76.0116 35.9147 75.8196 36 75.5423 36H74.3903C73.9636 36 73.7503 35.872 73.7503 35.616C73.7503 35.3387 73.8036 34.9653 73.9103 34.496L77.9423 15.68C78.0916 14.9973 78.4436 14.656 78.9983 14.656H79.5423C80.0969 14.656 80.4489 14.9973 80.5983 15.68L84.5343 34.496ZM77.6543 28.256C77.5903 28.5973 77.6116 28.8107 77.7183 28.896C77.8249 28.96 77.9956 28.992 78.2303 28.992H79.7663C80.0009 28.992 80.1609 28.9493 80.2463 28.864C80.3316 28.7787 80.3529 28.576 80.3103 28.256L79.3823 21.984C79.3396 21.7707 79.2329 21.6747 79.0623 21.696C78.9129 21.696 78.8169 21.792 78.7743 21.984L77.6543 28.256ZM92.6553 14.976C93.6579 14.976 94.4899 15.1467 95.1513 15.488C95.8339 15.8293 96.3673 16.2773 96.7513 16.832C97.1566 17.3867 97.4446 18.0373 97.6153 18.784C97.7859 19.5093 97.8713 20.2667 97.8713 21.056C97.8713 22.5707 97.6473 23.7227 97.1993 24.512C96.7513 25.28 96.1539 25.9093 95.4073 26.4L98.1593 34.592C98.2873 35.0187 98.3406 35.36 98.3193 35.616C98.2979 35.872 98.0526 36 97.5833 36H96.4633C96.1006 36 95.8339 35.9467 95.6633 35.84C95.5139 35.712 95.3646 35.4027 95.2153 34.912L92.7833 27.072H92.0793C92.0153 27.072 91.9406 27.0933 91.8553 27.136C91.7699 27.1573 91.7273 27.296 91.7273 27.552V34.688C91.7273 35.1573 91.6633 35.4987 91.5353 35.712C91.4286 35.904 91.1726 36 90.7673 36H89.7753C89.3699 36 89.1139 35.904 89.0073 35.712C88.9006 35.4987 88.8473 35.1573 88.8473 34.688V16.864C88.8473 16.5867 88.8579 16.3307 88.8793 16.096C88.9219 15.8613 88.9966 15.6693 89.1033 15.52C89.2099 15.3493 89.3699 15.2213 89.5833 15.136C89.7966 15.0293 90.0846 14.976 90.4473 14.976H92.6553ZM92.3673 25.056C92.9219 25.056 93.3593 24.9387 93.6793 24.704C93.9993 24.448 94.2446 24.1173 94.4153 23.712C94.5859 23.3067 94.6926 22.8587 94.7353 22.368C94.7779 21.856 94.7993 21.344 94.7993 20.832C94.7993 20.512 94.7779 20.16 94.7353 19.776C94.6926 19.3707 94.6073 18.9973 94.4792 18.656C94.3513 18.3147 94.1593 18.0267 93.9033 17.792C93.6686 17.5573 93.3593 17.44 92.9753 17.44C92.6339 17.44 92.3353 17.5253 92.0793 17.696C91.8446 17.8667 91.7273 18.2827 91.7273 18.944V24.48C91.7273 24.7147 91.7913 24.8747 91.9193 24.96C92.0473 25.024 92.1966 25.056 92.3673 25.056ZM103.411 17.568C102.941 17.568 102.589 17.536 102.355 17.472C102.12 17.3867 102.003 17.1413 102.003 16.736V15.808C102.003 15.4027 102.12 15.168 102.355 15.104C102.589 15.0187 102.941 14.976 103.411 14.976H109.843C110.312 14.976 110.664 15.0187 110.899 15.104C111.133 15.168 111.251 15.4027 111.251 15.808V16.736C111.251 17.1413 111.133 17.3867 110.899 17.472C110.664 17.536 110.312 17.568 109.843 17.568H109.427C108.744 17.568 108.339 17.6853 108.211 17.92C108.104 18.1547 108.051 18.5173 108.051 19.008V34.592C108.051 35.0613 107.997 35.4133 107.891 35.648C107.784 35.8827 107.528 36 107.123 36H106.131C105.725 36 105.469 35.8827 105.363 35.648C105.256 35.4133 105.203 35.0613 105.203 34.592V18.56C105.181 18.2187 105.085 17.9733 104.915 17.824C104.744 17.6533 104.381 17.568 103.827 17.568H103.411ZM124.124 36C123.676 36 123.367 35.904 123.196 35.712C123.047 35.4987 122.972 35.1573 122.972 34.688V16.32C122.972 15.8507 123.026 15.5093 123.132 15.296C123.239 15.0827 123.495 14.976 123.9 14.976H124.892C125.298 14.976 125.554 15.0827 125.66 15.296C125.788 15.5093 125.852 15.8507 125.852 16.32V32.288C125.852 32.7573 125.948 33.0347 126.14 33.12C126.354 33.184 126.706 33.216 127.196 33.216H129.116C129.586 33.216 129.938 33.2587 130.172 33.344C130.407 33.408 130.524 33.6427 130.524 34.048V35.168C130.524 35.5733 130.407 35.8187 130.172 35.904C129.938 35.968 129.586 36 129.116 36H124.124ZM137.071 34.656C137.071 35.1253 137.007 35.4667 136.879 35.68C136.772 35.8933 136.516 36 136.111 36H135.119C134.714 36 134.458 35.8933 134.351 35.68C134.244 35.4667 134.191 35.1253 134.191 34.656V16.288C134.191 15.8187 134.244 15.488 134.351 15.296C134.458 15.0827 134.714 14.976 135.119 14.976H136.111C136.516 14.976 136.772 15.0827 136.879 15.296C137.007 15.488 137.071 15.8187 137.071 16.288V34.656ZM146.531 28.384C146.574 28.5973 146.67 28.704 146.819 28.704C146.99 28.6827 147.096 28.576 147.139 28.384L149.443 15.936C149.55 15.424 149.656 15.0827 149.763 14.912C149.891 14.7413 150.094 14.656 150.371 14.656H151.523C151.95 14.656 152.163 14.7947 152.163 15.072C152.163 15.328 152.11 15.6907 152.003 16.16L147.971 34.976C147.822 35.6587 147.47 36 146.915 36H146.371C145.816 36 145.464 35.6587 145.315 34.976L141.379 16.16C141.272 15.6907 141.219 15.328 141.219 15.072C141.219 14.7947 141.432 14.656 141.859 14.656H143.299C143.576 14.656 143.768 14.7413 143.875 14.912C144.003 15.0827 144.12 15.424 144.227 15.936L146.531 28.384ZM161.724 23.648C162.193 23.648 162.513 23.7013 162.684 23.808C162.876 23.9147 162.972 24.1707 162.972 24.576V25.024C162.972 25.4293 162.876 25.6853 162.684 25.792C162.513 25.8987 162.193 25.952 161.724 25.952H160.54C159.857 25.952 159.452 26.0693 159.324 26.304C159.217 26.5387 159.164 26.9013 159.164 27.392V31.968C159.164 32.4587 159.217 32.8213 159.324 33.056C159.452 33.2907 159.857 33.408 160.54 33.408H162.46C162.929 33.408 163.281 33.4507 163.516 33.536C163.751 33.6 163.868 33.8347 163.868 34.24V35.168C163.868 35.5733 163.751 35.8187 163.516 35.904C163.281 35.968 162.929 36 162.46 36H157.916C157.553 36 157.265 35.9573 157.052 35.872C156.839 35.7653 156.679 35.6373 156.572 35.488C156.465 35.3173 156.391 35.1147 156.348 34.88C156.327 34.6453 156.316 34.3893 156.316 34.112V16.864C156.316 16.5867 156.327 16.3307 156.348 16.096C156.391 15.8613 156.465 15.6693 156.572 15.52C156.679 15.3493 156.839 15.2213 157.052 15.136C157.265 15.0293 157.553 14.976 157.916 14.976H162.46C162.929 14.976 163.281 15.0187 163.516 15.104C163.751 15.168 163.868 15.4027 163.868 15.808V16.736C163.868 17.1413 163.751 17.3867 163.516 17.472C163.281 17.536 162.929 17.568 162.46 17.568H160.54C159.857 17.568 159.452 17.6853 159.324 17.92C159.217 18.1547 159.164 18.5173 159.164 19.008V22.208C159.164 22.6987 159.217 23.0613 159.324 23.296C159.452 23.5307 159.857 23.648 160.54 23.648H161.724Z" fill="#C8C8C8"/>
<path d="M27.1615 36.32C26.9908 36.896 26.8095 37.312 26.6175 37.568C26.4468 37.8453 26.1588 37.984 25.7535 37.984H24.7615C24.3562 37.984 24.1322 37.8453 24.0895 37.568C24.0468 37.312 24.1108 36.896 24.2815 36.32L30.6175 13.632C30.7882 13.056 30.9588 12.64 31.1295 12.384C31.3002 12.128 31.5882 12 31.9935 12H32.9855C33.3908 12 33.6148 12.128 33.6575 12.384C33.7215 12.64 33.6682 13.056 33.4975 13.632L27.1615 36.32Z" fill="#C8FF00"/>
<path d="M39.0677 36.32C38.8971 36.896 38.7158 37.312 38.5238 37.568C38.3531 37.8453 38.0651 37.984 37.6598 37.984H36.6678C36.2624 37.984 36.0384 37.8453 35.9958 37.568C35.9531 37.312 36.0171 36.896 36.1878 36.32L42.5238 13.632C42.6944 13.056 42.8651 12.64 43.0358 12.384C43.2064 12.128 43.4944 12 43.8998 12H44.8918C45.2971 12 45.5211 12.128 45.5638 12.384C45.6278 12.64 45.5744 13.056 45.4038 13.632L39.0677 36.32Z" fill="#C800FF"/>
<path d="M116.432 36.224C115.856 36.224 115.43 36 115.152 35.552C114.896 35.0827 114.768 34.592 114.768 34.08C114.768 33.5467 114.896 33.056 115.152 32.608C115.43 32.1387 115.856 31.904 116.432 31.904C117.03 31.904 117.456 32.1387 117.712 32.608C117.99 33.056 118.128 33.5467 118.128 34.08C118.128 34.592 117.99 35.0827 117.712 35.552C117.456 36 117.03 36.224 116.432 36.224Z" fill="#FF0000"/>
</svg>
